<?xml version="1.0" encoding="utf-8"?>
<!-- Generator: Adobe Illustrator 14.0.0, SVG Export Plug-In  -->
<!DOCTYPE svg PUBLIC "-//W3C//DTD SVG 1.1//EN" "http://www.w3.org/Graphics/SVG/1.1/DTD/svg11.dtd" [
	<!ENTITY ns_flows "http://ns.adobe.com/Flows/1.0/">
]>
<svg version="1.1"
	 xmlns="http://www.w3.org/2000/svg" xmlns:xlink="http://www.w3.org/1999/xlink" xmlns:a="http://ns.adobe.com/AdobeSVGViewerExtensions/3.0/"
	 x="0px" y="0px" width="511px" height="164px" viewBox="0 -0.5 511 164" enable-background="new 0 -0.5 511 164"
	 xml:space="preserve">
<defs>
</defs>
<path opacity="0.4" fill="#FFFFFF" enable-background="new    " d="M314.318,29.771c21.807-7.677,43.156,3.899,42.857,25.632
	c39.515,16.959,30.357,76.416-9.181,84.012c-24.696,4.739-109.515,0-153.075,0c-29.71,0-55.533,2.978-68.874-8.546
	c-23.232-20.047-10.813-62.979,27.547-62.65c3.483-24.954,27.212-44.016,56.636-35.598c6.882-7.799,9.567-16.466,18.367-22.782
	C256.863-10.445,302.771,2.812,314.318,29.771z"/>
<path fill="#FFFFFF" d="M309.506,18.279c-3.109,1.601-6.282,3.234-8.828,4.544c0,1.044,0,2.087,0,3.131c0,5.05,0,10.1,0,15.149
	v32.27c0,1.729,1.212,3.131,2.707,3.131c1.494,0,2.707-1.401,2.707-3.131V38.316c1.109-0.572,2.256-1.161,3.414-1.757
	c5.897-3.037,11.134-4.98,12.244-8.842V14.515C320.314,11.857,315.142,15.378,309.506,18.279z"/>
<path fill="#FFFFFF" d="M127.071,103.475h-16.82l-4.485,16.695H93.057l16.654-62.09h17.942l16.654,62.09h-12.75L127.071,103.475z
	 M122.586,91.43l-5.15-19.354l-5.192,19.354H122.586z"/>
<path fill="#FFFFFF" d="M162.735,58.08v10.923h-5.15v40.245h5.15v10.923h-22.967v-10.923h5.191V69.002h-5.191V58.08H162.735z"/>
<path fill="#FFFFFF" d="M181.964,58.08v49.423h22.469v12.667h-35.095V68.961h-3.447V58.08H181.964z"/>
<path fill="#FFFFFF" d="M369.548,100.342c-2.521,5.012-6.078,8.999-10.675,11.961c-4.733,3.073-9.897,4.61-15.49,4.61
	c-8.196,0-15.188-3.032-20.975-9.095c-5.787-6.064-8.681-13.387-8.681-21.971c0-8.558,2.894-15.867,8.681-21.931
	s12.776-9.096,20.975-9.096c6.367,0,12.141,1.952,17.318,5.855l-6.604,11.463c-3.13-2.63-6.688-3.945-10.674-3.945
	c-4.683,0-8.683,1.73-12.003,5.191c-3.297,3.461-4.942,7.642-4.942,12.542c0,4.899,1.646,9.081,4.942,12.543
	c3.32,3.462,7.32,5.19,12.003,5.19c3.044,0,5.866-0.789,8.473-2.367c2.521-1.521,4.539-3.6,6.063-6.229h-13.705V83.563h25.293
	L369.548,100.342L369.548,100.342z"/>
<path fill="#FFFFFF" d="M403.105,100.217h-16.82l-4.484,16.696h-12.708l16.653-62.09h17.94l16.654,62.09h-12.75L403.105,100.217z
	 M398.621,88.173l-5.15-19.354l-5.191,19.354H398.621z"/>
<path fill="#FFFFFF" d="M444.243,54.823c5.147,0,9.552,1.828,13.207,5.482c3.653,3.627,5.48,8.03,5.48,13.207
	c0,5.15-1.828,9.552-5.48,13.207c-3.655,3.655-8.06,5.482-13.207,5.482H434.15v24.711h-12.626V65.704h-3.447V54.823H444.243z
	 M444.492,79.534c1.578,0,2.935-0.567,4.07-1.703c1.104-1.107,1.659-2.464,1.659-4.07c0-1.578-0.555-2.92-1.659-4.028
	c-1.138-1.135-2.492-1.703-4.07-1.703H434.15v11.504H444.492z"/>
<path fill="#FFFFFF" d="M492.045,54.823c5.15,0,9.553,1.828,13.207,5.482c3.655,3.627,5.482,8.03,5.482,13.207
	c0,5.15-1.827,9.552-5.482,13.207c-3.654,3.655-8.057,5.482-13.207,5.482h-10.092v24.711h-12.626V65.704h-3.447V54.823H492.045z
	 M492.294,79.534c1.579,0,2.935-0.567,4.07-1.703c1.105-1.107,1.661-2.464,1.661-4.07c0-1.578-0.556-2.92-1.661-4.028
	c-1.136-1.135-2.491-1.703-4.07-1.703h-10.341v11.504H492.294z"/>
<path fill="#FFFFFF" d="M288.971,52.316c-5.49-11.166-18.138-18.983-32.865-18.983c-13.992,0-26.1,7.057-31.984,17.336
	c-5.959,7.167-4.06,21.945-4.06,38.206c0,10.988,0,21.656,0,30.294c24,0,48,0,72,0c0-8.735,0-19.626,0-30.294
	C292.061,74.081,294.027,60.222,288.971,52.316z"/>
<path fill="#FFFFFF" d="M260.143,154.46c-10.369,4.878-26.43,8.292-41.158,8.292c-13.991,0-23.018-3.082-24.411-7.572
	c-2.829-3.131,5.527-9.588,12.631-16.69c4.8-4.8,9.46-9.46,13.234-13.234c24,0,47.999,0,71.999,0
	c-3.815,3.815-8.574,8.574-13.233,13.234C272.739,144.952,268.652,151.007,260.143,154.46z"/>
<polygon fill="#FFFFFF" points="74.962,58.08 53.103,88.289 31.244,58.08 16.432,58.08 47.185,100.58 59.021,100.58 89.774,58.08 
	"/>
<polygon fill="#FFFFFF" points="0,120.17 14.254,120.17 33.951,89.448 26.394,79.004 "/>
<polygon fill="#FFFFFF" points="79.812,79.004 72.255,89.448 91.952,120.17 106.206,120.17 "/>
</svg>
